<?xml version="1.0" standalone="no"?><!DOCTYPE svg PUBLIC "-//W3C//DTD SVG 1.1//EN" "http://www.w3.org/Graphics/SVG/1.1/DTD/svg11.dtd"><svg t="1669623978237" class="icon" viewBox="0 0 1076 1024" version="1.1" xmlns="http://www.w3.org/2000/svg" p-id="2833" xmlns:xlink="http://www.w3.org/1999/xlink" width="210.15625" height="200"><path d="M0 1000.139806h1076.333359v23.860194H0zM306.523961 617.740427h23.860194V994.174757h-23.860194zM351.06299 617.740427h23.860194V994.174757h-23.860194zM395.522485 397.669903h23.860195v596.504854h-23.860195zM439.981981 397.669903h23.860194v596.504854h-23.860194zM484.52101 119.300971h23.860194v874.873786h-23.860194zM528.980505 0h23.860194v994.174757h-23.860194zM573.44 119.300971h23.860194v874.873786h-23.860194zM617.979029 397.669903h23.860194v596.504854h-23.860194zM662.438524 397.669903h23.860194v596.504854h-23.860194zM706.977553 617.740427h23.860195V994.174757h-23.860195zM751.437049 617.740427h23.860194V994.174757h-23.860194z" p-id="2834" fill="#1296db"></path><path d="M810.21266 976.359146L795.339806 957.589126a416.758058 416.758058 0 0 0-180.383068-737.359534l4.453903-23.38299a440.618252 440.618252 0 0 1 190.881553 779.43301zM275.187573 983.278602a440.538718 440.538718 0 0 1 186.82532-787.386408l4.135767 23.860194a416.678524 416.678524 0 0 0-176.644971 744.438059z" p-id="2835" fill="#1296db"></path></svg>